<svg width="64" height="64" viewBox="0 0 64 64" fill="none" xmlns="http://www.w3.org/2000/svg">
<path fill-rule="evenodd" clip-rule="evenodd" d="M29.3333 10.6673C29.3333 13.6128 26.9455 16.0007 24 16.0007C21.0545 16.0007 18.6667 13.6128 18.6667 10.6673C18.6667 7.7218 21.0545 5.33398 24 5.33398C26.9455 5.33398 29.3333 7.7218 29.3333 10.6673ZM19.1901 25.9317C12.7038 23.8899 8 17.8279 8 10.6673H13.3333C13.3333 16.5584 18.109 21.334 24 21.334C29.891 21.334 34.6667 16.5584 34.6667 10.6673H40C40 16.4566 36.9253 21.5278 32.3197 24.3368L36.293 34.6673H53.3333V40.0006H34.4615H29.8588L36.1845 57.7732L31.16 59.5616L23.5668 38.2282L19.1901 25.9317Z" fill="white"/>
</svg>
