<svg width="162" height="40" viewBox="0 0 162 40" fill="none" xmlns="http://www.w3.org/2000/svg">
<path d="M59.0846 1.69555C59.1688 1.69299 59.2524 1.71139 59.3278 1.74909C59.4032 1.78679 59.4681 1.84261 59.5166 1.91155C59.5709 1.96776 59.6096 2.03721 59.6288 2.11299C59.648 2.18878 59.647 2.26827 59.6259 2.34355L58.9779 7.58088C58.9391 7.76551 58.8463 7.93444 58.7113 8.06622C58.6541 8.12126 58.5863 8.16408 58.512 8.19205C58.4377 8.22002 58.3585 8.23254 58.2792 8.22888H51.6872C51.6459 8.23131 51.6055 8.242 51.5684 8.26033C51.5313 8.27865 51.4983 8.30423 51.4712 8.33555C51.4331 8.38086 51.414 8.43914 51.4179 8.49822L47.6846 38.8449C47.6468 39.0299 47.5538 39.1991 47.4179 39.3302C47.3604 39.3848 47.2925 39.4272 47.2183 39.4552C47.1441 39.4831 47.0651 39.4959 46.9859 39.4929H40.8339C40.7547 39.4959 40.6756 39.4831 40.6014 39.4552C40.5272 39.4272 40.4594 39.3848 40.4019 39.3302C40.3495 39.2621 40.3128 39.1834 40.2943 39.0995C40.2759 39.0156 40.2762 38.9286 40.2952 38.8449L44.0285 8.49822C44.1005 8.31955 44.0285 8.23155 43.8125 8.23155H37.5405C37.1459 8.23155 36.9485 8.01555 36.9485 7.58355L37.5992 2.34355C37.625 2.18074 37.7004 2.02986 37.8152 1.91155C37.877 1.84421 37.9519 1.79028 38.0354 1.75312C38.1189 1.71597 38.2091 1.69636 38.3005 1.69555H59.0846ZM22.7111 39.4929C22.6285 39.5013 22.5451 39.4892 22.4683 39.4576C22.3915 39.426 22.3236 39.3759 22.2709 39.3118C22.2181 39.2476 22.182 39.1715 22.1657 39.09C22.1495 39.0086 22.1537 38.9243 22.1778 38.8449L26.6658 2.34355C26.6934 2.18131 26.7686 2.03093 26.8818 1.91155C26.9438 1.84446 27.0188 1.79069 27.1022 1.75355C27.1857 1.71642 27.2758 1.69668 27.3672 1.69555H33.4685C33.8658 1.69555 34.0632 1.91155 34.0632 2.34355L29.5672 38.8449C29.5294 39.0299 29.4364 39.1991 29.3005 39.3302C29.1609 39.4361 28.9904 39.4933 28.8152 39.4929H22.7111ZM23.1325 7.58088C23.0936 7.76551 23.0008 7.93444 22.8658 8.06622C22.8086 8.12126 22.7408 8.16408 22.6666 8.19205C22.5923 8.22002 22.5131 8.23254 22.4338 8.22888H11.5218C11.4857 8.22459 11.4492 8.22854 11.4149 8.24043C11.3806 8.25231 11.3494 8.27183 11.3237 8.2975C11.298 8.32317 11.2785 8.35433 11.2667 8.38864C11.2548 8.42294 11.2508 8.45949 11.2551 8.49555L10.1884 17.0289C10.1884 17.2067 10.2604 17.2955 10.4044 17.2955H16.6685C16.7526 17.2937 16.8359 17.3124 16.9112 17.35C16.9865 17.3877 17.0515 17.4431 17.1005 17.5116C17.1546 17.5679 17.1929 17.6374 17.2116 17.7133C17.2303 17.7891 17.2288 17.8685 17.2071 17.9436L16.5458 23.1995C16.5067 23.3841 16.4139 23.5529 16.2791 23.6849C16.2219 23.7399 16.1542 23.7827 16.0799 23.8107C16.0056 23.8387 15.9264 23.8512 15.8471 23.8475H9.63377C9.41777 23.8475 9.30844 23.9355 9.30844 24.1142L7.5271 38.8556C7.48935 39.0406 7.39637 39.2098 7.26043 39.3409C7.12083 39.4468 6.95032 39.5039 6.7751 39.5036H0.668408C0.58578 39.512 0.502352 39.4998 0.425541 39.4683C0.34873 39.4367 0.280917 39.3866 0.228136 39.3224C0.175355 39.2583 0.139241 39.1821 0.123005 39.1007C0.106769 39.0192 0.110915 38.935 0.135073 38.8556L4.61242 2.34355C4.6382 2.18074 4.71363 2.02986 4.82842 1.91155C4.8902 1.84421 4.96516 1.79028 5.04865 1.75312C5.13214 1.71597 5.22237 1.69636 5.31376 1.69555H23.2391C23.3234 1.69299 23.407 1.71139 23.4824 1.74909C23.5578 1.78679 23.6226 1.84261 23.6711 1.91155C23.7255 1.96776 23.7642 2.03721 23.7833 2.11299C23.8025 2.18878 23.8015 2.26827 23.7805 2.34355L23.1325 7.58088Z" fill="#49AD50"/>
<path d="M137.308 39.494C137.057 39.494 136.894 39.438 136.822 39.3313C136.791 39.2307 136.785 39.1241 136.804 39.0205C136.823 38.9169 136.867 38.8195 136.932 38.7366L144.492 25.7793L144.545 25.454L140.116 12.494L140.062 12.278C140.062 11.918 140.278 11.7446 140.71 11.7446H147.406C147.561 11.7313 147.716 11.7725 147.844 11.8611C147.972 11.9497 148.065 12.0801 148.108 12.23L149.889 18.3313C149.998 18.5473 150.105 18.5473 150.214 18.3313L153.508 12.23C153.582 12.0818 153.696 11.9576 153.838 11.8717C153.979 11.7859 154.142 11.7418 154.308 11.7446H160.948C161.2 11.7446 161.363 11.8166 161.436 11.9606C161.508 12.0673 161.47 12.2486 161.326 12.494L153.766 25.454C153.732 25.5598 153.732 25.6735 153.766 25.7793L158.14 38.7366L158.196 38.9526C158.196 39.3126 157.98 39.486 157.548 39.486H150.916C150.766 39.5037 150.614 39.4629 150.494 39.372C150.373 39.2811 150.292 39.1471 150.268 38.998L148.433 32.6806C148.362 32.3926 148.273 32.3926 148.166 32.6806L144.82 38.998C144.755 39.1531 144.642 39.2837 144.499 39.3713C144.355 39.459 144.187 39.4991 144.02 39.486L137.308 39.494Z" fill="white"/>
<path d="M127.219 39.4931C127.137 39.5015 127.053 39.4894 126.976 39.4578C126.9 39.4262 126.832 39.3761 126.779 39.312C126.726 39.2478 126.69 39.1717 126.674 39.0902C126.658 39.0088 126.662 38.9245 126.686 38.8451L129.926 12.3864C129.953 12.2242 130.029 12.0738 130.142 11.9544C130.204 11.8873 130.279 11.8336 130.362 11.7964C130.446 11.7593 130.536 11.7395 130.627 11.7384H136.785C136.869 11.7366 136.952 11.7553 137.027 11.7929C137.103 11.8305 137.168 11.886 137.217 11.9544C137.271 12.0107 137.309 12.0803 137.328 12.1561C137.346 12.232 137.345 12.3114 137.323 12.3864L134.083 38.8451C134.045 39.0301 133.952 39.1993 133.817 39.3304C133.759 39.3855 133.692 39.4283 133.617 39.4562C133.543 39.4842 133.464 39.4967 133.385 39.4931H127.219Z" fill="white"/>
<path d="M134.021 8.60863C133.534 8.62658 133.048 8.54479 132.593 8.36825C132.138 8.19171 131.724 7.92415 131.376 7.58196C131.037 7.24288 130.771 6.83798 130.594 6.3922C130.418 5.94642 130.334 5.46921 130.349 4.98996C130.349 3.54996 130.799 2.38018 131.699 1.48063C132.127 1.02458 132.647 0.663789 133.224 0.421675C133.801 0.17956 134.422 0.0615453 135.048 0.0752961C136.163 0.0752961 137.044 0.399739 137.693 1.04863C138.023 1.39203 138.279 1.79899 138.446 2.24465C138.613 2.6903 138.687 3.1653 138.664 3.64063C138.675 4.28948 138.557 4.93408 138.316 5.53667C138.076 6.13927 137.717 6.68775 137.261 7.14996C136.858 7.61163 136.36 7.9809 135.8 8.23262C135.241 8.48434 134.635 8.61258 134.021 8.60863Z" fill="white"/>
<path d="M113.868 39.8694C111.132 39.8694 108.972 39.2578 107.388 38.0347C105.841 36.7725 105.068 35.0623 105.068 32.9041C105.062 32.5477 105.079 32.1914 105.121 31.8374L105.174 31.4614C105.202 31.2991 105.277 31.1488 105.39 31.0294C105.452 30.9623 105.527 30.9085 105.611 30.8714C105.694 30.8342 105.784 30.8145 105.876 30.8134H111.654C111.738 30.8115 111.822 30.8302 111.897 30.8679C111.972 30.9055 112.037 30.9609 112.086 31.0294C112.14 31.0857 112.179 31.1553 112.197 31.2311C112.216 31.3069 112.215 31.3863 112.193 31.4614V31.6214C112.128 31.9563 112.142 32.3017 112.235 32.6301C112.328 32.9584 112.496 33.2604 112.726 33.512C113.231 33.9635 113.885 34.2131 114.562 34.2131C115.24 34.2131 115.893 33.9635 116.398 33.512C116.863 33.0156 117.114 32.3571 117.1 31.6774C117.105 31.35 117.022 31.0272 116.861 30.7423C116.7 30.4573 116.465 30.2204 116.182 30.0561C115.545 29.616 114.855 29.2577 114.129 28.9894C113.373 28.7014 112.869 28.5032 112.617 28.3947C111.062 27.8128 109.645 26.9117 108.46 25.7494C107.345 24.6347 106.788 23.0694 106.788 21.0534C106.781 20.6562 106.799 20.2591 106.841 19.864C107.164 17.2383 108.262 15.1689 110.134 13.656C112.006 12.1432 114.328 11.3867 117.1 11.3867C119.766 11.3867 121.836 12.0525 123.31 13.384C124.82 14.7174 125.575 16.536 125.577 18.84C125.567 19.2916 125.53 19.7421 125.468 20.1894C125.43 20.3744 125.337 20.5436 125.201 20.6747C125.144 20.7298 125.076 20.7726 125.002 20.8005C124.927 20.8285 124.848 20.841 124.769 20.8374H119.15C119.071 20.8404 118.992 20.8276 118.918 20.7997C118.844 20.7717 118.776 20.7293 118.718 20.6747C118.666 20.6066 118.629 20.5279 118.611 20.444C118.592 20.3601 118.593 20.2731 118.612 20.1894L118.668 19.7334C118.717 19.4274 118.699 19.1143 118.615 18.8159C118.532 18.5174 118.384 18.2409 118.182 18.0054C117.996 17.7719 117.757 17.5863 117.485 17.4643C117.213 17.3422 116.915 17.2873 116.617 17.3041C116.248 17.286 115.88 17.3548 115.542 17.5049C115.205 17.6549 114.907 17.8821 114.673 18.168C114.211 18.6877 113.961 19.3612 113.972 20.056C113.956 20.415 114.032 20.7721 114.192 21.0935C114.353 21.415 114.593 21.6903 114.889 21.8934C115.833 22.4714 116.831 22.958 117.868 23.3467C119.884 24.1396 121.504 25.0578 122.729 26.1014C123.988 27.1467 124.617 28.6765 124.617 30.6907C124.617 33.4978 123.61 35.7298 121.596 37.3867C119.615 39.0418 117.037 39.8694 113.862 39.8694" fill="white"/>
<path d="M91.8488 33.3919C92.1997 33.394 92.5467 33.3175 92.8642 33.168C93.1817 33.0185 93.4616 32.7998 93.6835 32.5279C94.2506 31.8948 94.6091 31.1025 94.7101 30.2585L95.8435 20.9706C95.9528 20.0372 95.8088 19.2799 95.4115 18.7039C95.2311 18.4277 94.9823 18.203 94.6893 18.0516C94.3963 17.9001 94.0691 17.8272 93.7395 17.8399C93.381 17.8408 93.0268 17.9184 92.7007 18.0674C92.3746 18.2164 92.0841 18.4334 91.8488 18.7039C91.3168 19.3469 90.9964 20.1385 90.9315 20.9706L89.7421 30.2585C89.6355 31.1937 89.7795 31.9501 90.1741 32.5279C90.3553 32.8039 90.6046 33.0285 90.898 33.1798C91.1914 33.3312 91.5189 33.4042 91.8488 33.3919ZM96.8702 12.3866C96.8977 12.2243 96.9729 12.0739 97.0862 11.9545C97.1481 11.8875 97.2231 11.8337 97.3066 11.7966C97.39 11.7594 97.4802 11.7397 97.5715 11.7385H103.734C103.818 11.7367 103.902 11.7554 103.977 11.793C104.052 11.8307 104.117 11.8861 104.166 11.9545C104.22 12.0109 104.259 12.0804 104.277 12.1563C104.296 12.2321 104.295 12.3115 104.273 12.3866L101.033 38.8452C100.995 39.0302 100.902 39.1995 100.766 39.3306C100.709 39.3851 100.641 39.4276 100.567 39.4555C100.492 39.4835 100.413 39.4963 100.334 39.4932H94.1715C94.0889 39.5016 94.0054 39.4895 93.9286 39.4579C93.8518 39.4263 93.784 39.3762 93.7312 39.3121C93.6784 39.248 93.6423 39.1718 93.6261 39.0904C93.6098 39.0089 93.614 38.9247 93.6381 38.8452L93.8541 37.3332C93.8541 37.1892 93.8195 37.1172 93.7475 37.1172C93.6755 37.1172 93.6035 37.1705 93.5315 37.2772C92.9554 38.1145 92.1797 38.795 91.2746 39.2574C90.3695 39.7197 89.3635 39.9492 88.3475 39.9252C86.2603 39.9252 84.7119 39.3128 83.7021 38.0879C82.6923 36.863 82.1892 35.1537 82.1928 32.9599C82.1814 32.2561 82.2171 31.5523 82.2994 30.8532L83.5954 20.3786C83.951 17.4274 84.815 15.1777 86.1875 13.6292C87.5901 12.079 89.4799 11.3048 91.8568 11.3066C94.0168 11.3066 95.5279 12.1883 96.3902 13.9519C96.4622 14.0612 96.5155 14.1145 96.5528 14.1145C96.5902 14.1145 96.6781 14.0426 96.7128 13.8986L96.8702 12.3866ZM72.9154 20.9199C73.0521 20.1541 72.8981 19.3648 72.4834 18.7066C72.3025 18.4304 72.0532 18.2057 71.7597 18.0543C71.4663 17.9029 71.1387 17.8299 70.8087 17.8426C70.1749 17.851 69.5638 18.0802 69.0807 18.4906C68.5644 18.9431 68.2057 19.5483 68.0567 20.2186L66.7607 31.0186C66.7294 31.6491 66.9413 32.2677 67.3527 32.7465C67.5519 32.9613 67.7951 33.1304 68.0658 33.2423C68.3364 33.3541 68.6281 33.4061 68.9207 33.3945C69.2717 33.3967 69.6186 33.3202 69.9361 33.1707C70.2536 33.0212 70.5335 32.8024 70.7554 32.5306C71.3125 31.9176 71.6543 31.1395 71.7287 30.3146L72.9154 20.9199ZM74.1581 11.3199C76.247 11.3199 77.8123 11.9314 78.8541 13.1545C79.9332 14.3439 80.4737 16.0719 80.4754 18.3385C80.4876 19.0247 80.451 19.7109 80.3661 20.3919L79.0701 30.8666C78.7145 33.711 77.815 35.943 76.3714 37.5625C74.9688 39.1465 73.0612 39.9386 70.6487 39.9386C68.6665 39.9386 67.1901 39.2541 66.2194 37.8852C66.1954 37.8524 66.1606 37.8291 66.1211 37.8193C66.0816 37.8096 66.0399 37.814 66.0034 37.8319C65.9314 37.8319 65.8967 37.8852 65.8967 37.9945L65.7874 38.8585C65.7496 39.0436 65.6567 39.2128 65.5207 39.3439C65.4635 39.3989 65.3957 39.4417 65.3215 39.4697C65.2472 39.4977 65.168 39.5102 65.0887 39.5066H58.934C58.8514 39.515 58.768 39.5029 58.6912 39.4713C58.6144 39.4397 58.5465 39.3896 58.4938 39.3254C58.441 39.2613 58.4049 39.1851 58.3886 39.1037C58.3724 39.0222 58.3765 38.938 58.4007 38.8585L62.8834 2.35722C62.9092 2.1944 62.9846 2.04353 63.0994 1.92522C63.1614 1.85812 63.2364 1.80436 63.3198 1.76723C63.4032 1.73009 63.4934 1.71035 63.5847 1.70922H69.7394C69.8237 1.70666 69.9072 1.72506 69.9826 1.76276C70.058 1.80046 70.1229 1.85628 70.1714 1.92522C70.2257 1.98143 70.2644 2.05087 70.2836 2.12666C70.3028 2.20244 70.3018 2.28193 70.2807 2.35722L68.9314 13.3172V13.4266H68.9847C69.175 13.404 69.349 13.3083 69.4701 13.1599C70.7256 11.9457 72.4116 11.2791 74.1581 11.3066V11.3199Z" fill="white"/>
</svg>
