<svg width="400" height="100" viewBox="0 0 400 100" fill="none" xmlns="http://www.w3.org/2000/svg">
<path d="M146.245 4.19687C146.454 4.19054 146.661 4.23608 146.848 4.32939C147.034 4.42271 147.195 4.56089 147.315 4.73154C147.449 4.87066 147.545 5.04256 147.592 5.23014C147.64 5.41773 147.638 5.61447 147.585 5.80083L145.981 18.7644C145.885 19.2214 145.656 19.6395 145.321 19.9657C145.18 20.1019 145.012 20.2079 144.828 20.2771C144.644 20.3464 144.448 20.3774 144.252 20.3683H127.935C127.833 20.3743 127.733 20.4008 127.641 20.4461C127.549 20.4915 127.468 20.5548 127.401 20.6323C127.306 20.7445 127.259 20.8887 127.269 21.035L118.028 96.1496C117.934 96.6076 117.704 97.0265 117.368 97.3509C117.225 97.4859 117.057 97.5911 116.874 97.6603C116.69 97.7294 116.494 97.7611 116.298 97.7536H101.071C100.874 97.7611 100.679 97.7294 100.495 97.6603C100.312 97.5911 100.144 97.4859 100.001 97.3509C99.8716 97.1824 99.7807 96.9874 99.7351 96.7798C99.6895 96.5721 99.6902 96.357 99.7372 96.1496L108.978 21.035C109.156 20.5927 108.978 20.3749 108.443 20.3749H92.9188C91.9419 20.3749 91.4534 19.8403 91.4534 18.771L93.064 5.80083C93.1278 5.39783 93.3145 5.02437 93.5986 4.73154C93.7515 4.56484 93.9371 4.43136 94.1437 4.33938C94.3504 4.24741 94.5737 4.19889 94.7999 4.19687H146.245ZM56.2125 97.7536C56.008 97.7744 55.8014 97.7444 55.6113 97.6662C55.4212 97.588 55.2533 97.464 55.1227 97.3053C54.992 97.1466 54.9027 96.958 54.8625 96.7564C54.8223 96.5548 54.8326 96.3463 54.8924 96.1496L66.0013 5.80083C66.0694 5.39924 66.2555 5.02703 66.5359 4.73154C66.6893 4.56546 66.8749 4.43238 67.0815 4.34045C67.288 4.24853 67.5112 4.19967 67.7372 4.19687H82.8395C83.823 4.19687 84.3115 4.73153 84.3115 5.80083L73.1828 96.1496C73.0894 96.6076 72.8592 97.0265 72.5227 97.3509C72.1772 97.6131 71.7551 97.7545 71.3214 97.7536H56.2125ZM57.2554 18.7644C57.1593 19.2214 56.9295 19.6395 56.5953 19.9657C56.4538 20.1019 56.286 20.2079 56.1021 20.2771C55.9183 20.3464 55.7223 20.3774 55.526 20.3683H28.5161C28.4269 20.3577 28.3364 20.3675 28.2515 20.3969C28.1666 20.4263 28.0894 20.4746 28.0259 20.5382C27.9623 20.6017 27.914 20.6788 27.8846 20.7637C27.8552 20.8487 27.8454 20.9391 27.856 21.0284L25.2158 42.1502C25.2158 42.5903 25.394 42.8103 25.7504 42.8103H41.2554C41.4637 42.8057 41.6699 42.852 41.8563 42.9452C42.0426 43.0383 42.2034 43.1756 42.3247 43.345C42.4586 43.4844 42.5535 43.6566 42.5998 43.8443C42.6462 44.0319 42.6423 44.2285 42.5887 44.4143L40.9517 57.424C40.8549 57.8807 40.6252 58.2986 40.2917 58.6253C40.1502 58.7616 39.9824 58.8675 39.7985 58.9368C39.6147 59.006 39.4186 59.037 39.2224 59.0279H23.8428C23.3082 59.0279 23.0376 59.2458 23.0376 59.688L18.6283 96.1761C18.5349 96.634 18.3047 97.0529 17.9682 97.3774C17.6227 97.6395 17.2007 97.781 16.7669 97.78H1.65142C1.44689 97.8008 1.24039 97.7708 1.05026 97.6926C0.860135 97.6144 0.692283 97.4904 0.561637 97.3317C0.430991 97.173 0.3416 96.9844 0.301412 96.7828C0.261224 96.5812 0.271486 96.3728 0.331285 96.1761L11.4138 5.80083C11.4776 5.39783 11.6643 5.02437 11.9485 4.73154C12.1014 4.56484 12.2869 4.43136 12.4936 4.33938C12.7002 4.24741 12.9236 4.19889 13.1498 4.19687H57.5194C57.728 4.19054 57.9348 4.23608 58.1215 4.32939C58.3081 4.42271 58.4686 4.56089 58.5887 4.73154C58.7232 4.87066 58.8189 5.04256 58.8664 5.23014C58.9139 5.41773 58.9114 5.61447 58.8593 5.80083L57.2554 18.7644Z" fill="#49AD50"/>
<path d="M339.868 97.7532C339.247 97.7532 338.845 97.6146 338.666 97.3506C338.589 97.1017 338.573 96.8377 338.62 96.5813C338.667 96.3249 338.776 96.0838 338.937 95.8787L357.65 63.8064L357.782 63.0012L346.818 30.9223L346.686 30.3877C346.686 29.4966 347.221 29.0676 348.29 29.0676H364.864C365.248 29.0347 365.632 29.1367 365.948 29.3559C366.265 29.5752 366.496 29.898 366.6 30.2689L371.01 45.371C371.28 45.9056 371.544 45.9056 371.815 45.371L379.967 30.2689C380.15 29.9022 380.433 29.5948 380.783 29.3822C381.134 29.1696 381.537 29.0605 381.947 29.0676H398.383C399.007 29.0676 399.41 29.2458 399.59 29.6022C399.769 29.8662 399.676 30.3151 399.32 30.9223L380.607 63.0012C380.523 63.2631 380.523 63.5446 380.607 63.8064L391.432 95.8787L391.571 96.4133C391.571 97.3044 391.036 97.7335 389.967 97.7335H373.551C373.179 97.7775 372.805 97.6764 372.506 97.4514C372.208 97.2264 372.007 96.8947 371.947 96.5255L367.406 80.8888C367.23 80.1759 367.01 80.1759 366.746 80.8888L358.462 96.5255C358.301 96.9095 358.022 97.2329 357.667 97.4498C357.311 97.6666 356.897 97.7659 356.482 97.7335L339.868 97.7532Z" fill="white"/>
<path d="M314.894 97.7539C314.689 97.7748 314.483 97.7448 314.292 97.6666C314.102 97.5884 313.934 97.4644 313.804 97.3056C313.673 97.1469 313.584 96.9583 313.544 96.7567C313.503 96.5551 313.514 96.3467 313.573 96.15L321.593 30.659C321.661 30.2574 321.848 29.8851 322.128 29.5896C322.281 29.4236 322.467 29.2905 322.674 29.1986C322.88 29.1067 323.103 29.0578 323.329 29.055H338.57C338.778 29.0504 338.985 29.0967 339.171 29.1899C339.357 29.283 339.518 29.4203 339.639 29.5896C339.773 29.7291 339.868 29.9013 339.915 30.089C339.961 30.2766 339.957 30.4732 339.904 30.659L331.884 96.15C331.79 96.608 331.56 97.0268 331.224 97.3513C331.082 97.4875 330.914 97.5935 330.73 97.6627C330.547 97.732 330.351 97.763 330.154 97.7539H314.894Z" fill="white"/>
<path d="M331.734 21.3062C330.527 21.3506 329.324 21.1482 328.198 20.7112C327.072 20.2742 326.047 19.6119 325.186 18.765C324.347 17.9257 323.689 16.9234 323.252 15.82C322.814 14.7166 322.608 13.5354 322.645 12.3492C322.645 8.78487 323.758 5.88941 325.985 3.66281C327.045 2.534 328.332 1.64096 329.76 1.04167C331.188 0.442384 332.727 0.150271 334.275 0.184307C337.034 0.184307 339.217 0.987375 340.823 2.59352C341.638 3.44352 342.272 4.45084 342.685 5.55393C343.098 6.65702 343.282 7.83274 343.226 9.00929C343.254 10.6153 342.961 12.2109 342.365 13.7024C341.769 15.194 340.881 16.5516 339.754 17.6957C338.755 18.8384 337.522 19.7524 336.138 20.3755C334.754 20.9985 333.252 21.316 331.734 21.3062" fill="white"/>
<path d="M281.847 98.6854C275.075 98.6854 269.729 97.1717 265.808 94.1442C261.98 91.0199 260.065 86.7868 260.065 81.4447C260.05 80.5627 260.095 79.6806 260.197 78.8045L260.329 77.8738C260.398 77.4722 260.584 77.1 260.864 76.8045C261.017 76.6384 261.203 76.5053 261.41 76.4134C261.616 76.3215 261.839 76.2726 262.065 76.2698H276.369C276.577 76.2652 276.783 76.3115 276.97 76.4047C277.156 76.4979 277.317 76.6351 277.438 76.8045C277.572 76.9439 277.667 77.1161 277.713 77.3038C277.76 77.4915 277.756 77.688 277.702 77.8738V78.2698C277.542 79.0988 277.577 79.9538 277.806 80.7665C278.036 81.5792 278.452 82.3269 279.022 82.9496C280.272 84.0671 281.89 84.6849 283.567 84.6849C285.244 84.6849 286.862 84.0671 288.112 82.9496C289.261 81.7207 289.884 80.0908 289.847 78.4084C289.86 77.5981 289.656 76.7991 289.257 76.0938C288.858 75.3884 288.278 74.8022 287.577 74.3953C286 73.3061 284.292 72.4191 282.494 71.755C280.624 71.0422 279.377 70.5515 278.752 70.2831C274.902 68.8428 271.397 66.6123 268.461 63.7353C265.702 60.9763 264.323 57.1017 264.323 52.1117C264.308 51.1286 264.352 50.1456 264.455 49.1678C265.256 42.6684 267.973 37.5464 272.607 33.8017C277.24 30.0569 282.987 28.1846 289.847 28.1846C296.448 28.1846 301.572 29.8325 305.22 33.1284C308.956 36.4287 310.827 40.9303 310.831 46.6332C310.805 47.7508 310.715 48.866 310.56 49.9731C310.467 50.4311 310.237 50.85 309.9 51.1744C309.759 51.3107 309.591 51.4166 309.407 51.4859C309.223 51.5551 309.027 51.5861 308.831 51.577H294.923C294.727 51.5846 294.532 51.5528 294.348 51.4837C294.164 51.4146 293.996 51.3094 293.854 51.1744C293.724 51.0059 293.634 50.8109 293.588 50.6032C293.542 50.3956 293.543 50.1804 293.59 49.9731L293.729 48.8444C293.851 48.087 293.807 47.312 293.6 46.5733C293.392 45.8347 293.026 45.1501 292.527 44.5672C292.067 43.9892 291.475 43.5299 290.801 43.2279C290.127 42.9258 289.39 42.7898 288.653 42.8313C287.739 42.7867 286.828 42.9569 285.993 43.3283C285.157 43.6998 284.42 44.262 283.841 44.9699C282.699 46.256 282.079 47.9232 282.105 49.6431C282.066 50.5316 282.254 51.4154 282.651 52.2111C283.048 53.0068 283.642 53.6882 284.376 54.1909C286.713 55.6216 289.182 56.8261 291.748 57.7882C296.739 59.7508 300.75 62.0236 303.781 64.6066C306.897 67.194 308.455 70.9806 308.455 75.9662C308.455 82.9144 305.962 88.4391 300.976 92.5403C296.074 96.637 289.693 98.6854 281.834 98.6854" fill="white"/>
<path d="M227.346 82.6526C228.215 82.6579 229.073 82.4686 229.859 82.0985C230.645 81.7284 231.338 81.187 231.887 80.514C233.291 78.947 234.178 76.9858 234.429 74.8969L237.234 51.9071C237.504 49.5969 237.148 47.7223 236.164 46.2966C235.718 45.613 235.102 45.0567 234.377 44.6819C233.652 44.3071 232.842 44.1266 232.026 44.158C231.138 44.1602 230.262 44.3522 229.455 44.7211C228.647 45.0899 227.929 45.6271 227.346 46.2966C226.029 47.8882 225.236 49.8477 225.075 51.9071L222.132 74.8969C221.867 77.2115 222.224 79.0839 223.201 80.514C223.649 81.1972 224.266 81.753 224.993 82.1277C225.719 82.5024 226.529 82.6832 227.346 82.6526M239.775 30.6598C239.843 30.2582 240.029 29.886 240.31 29.5905C240.463 29.4244 240.649 29.2913 240.855 29.1994C241.062 29.1075 241.285 29.0586 241.511 29.0558H256.765C256.973 29.0513 257.18 29.0976 257.366 29.1907C257.552 29.2839 257.713 29.4211 257.834 29.5905C257.968 29.7299 258.063 29.9021 258.11 30.0898C258.156 30.2775 258.152 30.4741 258.099 30.6598L250.079 96.1508C249.985 96.6088 249.755 97.0277 249.419 97.3521C249.276 97.4871 249.108 97.5923 248.925 97.6614C248.741 97.7306 248.545 97.7623 248.349 97.7547H233.095C232.891 97.7756 232.684 97.7456 232.494 97.6674C232.304 97.5892 232.136 97.4652 232.005 97.3065C231.875 97.1477 231.785 96.9592 231.745 96.7576C231.705 96.5559 231.715 96.3475 231.775 96.1508L232.31 92.4083C232.31 92.0518 232.224 91.8736 232.046 91.8736C231.867 91.8736 231.689 92.0056 231.511 92.2697C230.085 94.3421 228.165 96.0266 225.925 97.1709C223.684 98.3153 221.194 98.8834 218.679 98.824C213.513 98.824 209.68 97.3081 207.181 94.2763C204.682 91.2444 203.436 87.0134 203.445 81.5833C203.417 79.8412 203.505 78.0992 203.709 76.3689L206.917 50.4418C207.797 43.1371 209.936 37.5684 213.333 33.7357C216.805 29.8985 221.482 27.9822 227.366 27.9866C232.712 27.9866 236.453 30.1692 238.587 34.5343C238.765 34.805 238.897 34.937 238.99 34.937C239.082 34.937 239.3 34.7588 239.386 34.4023L239.775 30.6598ZM180.481 51.7817C180.82 49.8861 180.438 47.9324 179.412 46.3032C178.964 45.6195 178.347 45.0633 177.621 44.6886C176.894 44.3139 176.084 44.1334 175.267 44.1646C173.698 44.1856 172.185 44.7527 170.99 45.7685C169.712 46.8886 168.824 48.3868 168.455 50.0457L165.247 76.7781C165.169 78.3389 165.694 79.8699 166.712 81.0553C167.205 81.5868 167.807 82.0054 168.477 82.2823C169.147 82.5592 169.869 82.6877 170.594 82.6592C171.462 82.6645 172.321 82.4752 173.107 82.1051C173.893 81.7351 174.586 81.1936 175.135 80.5206C176.514 79.0034 177.36 77.0775 177.544 75.0355L180.481 51.7817ZM183.557 28.0196C188.728 28.0196 192.602 29.5333 195.181 32.5608C197.852 35.5046 199.19 39.7818 199.194 45.3923C199.224 47.0907 199.134 48.7891 198.924 50.4748L195.716 76.4019C194.836 83.4425 192.609 88.9672 189.036 92.9759C185.564 96.8967 180.842 98.8571 174.871 98.8571C169.964 98.8571 166.31 97.1629 163.907 93.7746C163.848 93.6934 163.761 93.6356 163.664 93.6115C163.566 93.5874 163.463 93.5984 163.372 93.6426C163.194 93.6426 163.108 93.7746 163.108 94.0452L162.838 96.1838C162.744 96.6418 162.514 97.0607 162.178 97.3851C162.036 97.5214 161.868 97.6273 161.685 97.6966C161.501 97.7658 161.305 97.7968 161.108 97.7878H145.874C145.67 97.8086 145.463 97.7786 145.273 97.7004C145.083 97.6222 144.915 97.4982 144.784 97.3395C144.654 97.1807 144.564 96.9922 144.524 96.7906C144.484 96.5889 144.494 96.3805 144.554 96.1838L155.65 5.83499C155.713 5.43198 155.9 5.05853 156.184 4.76569C156.338 4.59962 156.523 4.46656 156.73 4.37463C156.936 4.28271 157.16 4.23385 157.386 4.23105H172.62C172.829 4.22472 173.035 4.27026 173.222 4.36357C173.409 4.45689 173.569 4.59505 173.689 4.76569C173.824 4.90482 173.919 5.07672 173.967 5.2643C174.014 5.45189 174.012 5.64863 173.96 5.83499L170.62 32.9634V33.234H170.752C171.223 33.1781 171.654 32.9414 171.953 32.574C175.061 29.5685 179.234 27.9187 183.557 27.9866V28.0196Z" fill="white"/>
</svg>
