<svg width="32" height="32" viewBox="0 0 32 32" fill="none" xmlns="http://www.w3.org/2000/svg">
<path d="M16 32C24.8366 32 32 24.8366 32 16C32 7.16344 24.8366 0 16 0C7.16344 0 0 7.16344 0 16C0 24.8366 7.16344 32 16 32Z" fill="#1D9BF0"/>
<path d="M13.0731 24.4395C20.1675 24.4395 24.0475 18.5619 24.0475 13.4651C24.0475 13.2979 24.0443 13.1315 24.0363 12.9667C24.7891 12.4219 25.4443 11.7427 25.9603 10.9699C25.2691 11.2771 24.5251 11.4835 23.7451 11.5771C24.5411 11.0995 25.1531 10.3443 25.4411 9.44353C24.6955 9.88513 23.8707 10.2067 22.9923 10.3795C22.2883 9.62993 21.2859 9.16113 20.1771 9.16113C18.0467 9.16113 16.3195 10.8883 16.3195 13.0179C16.3195 13.3203 16.3531 13.6147 16.4195 13.8971C13.2139 13.7363 10.3715 12.2011 8.46913 9.86753C8.13793 10.4371 7.94673 11.0995 7.94673 11.8059C7.94673 13.1443 8.62753 14.3251 9.66353 15.0163C9.03073 14.9971 8.43633 14.8227 7.91633 14.5339C7.91553 14.5499 7.91553 14.5659 7.91553 14.5827C7.91553 16.4507 9.24513 18.0107 11.0099 18.3643C10.6859 18.4523 10.3451 18.5003 9.99313 18.5003C9.74433 18.5003 9.50273 18.4755 9.26833 18.4307C9.75953 19.9635 11.1835 21.0779 12.8715 21.1099C11.5515 22.1443 9.88833 22.7611 8.08113 22.7611C7.76993 22.7611 7.46273 22.7435 7.16113 22.7075C8.86833 23.8011 10.8947 24.4403 13.0739 24.4403" fill="white"/>
</svg>
