<svg width="72" height="72" viewBox="0 0 72 72" fill="none" xmlns="http://www.w3.org/2000/svg">
<g clip-path="url(#clip0_249_6447)">
<path d="M61.3951 10.4631C54.6564 3.71979 45.6961 0.00411423 36.1494 0C16.477 0 0.467666 16.0042 0.45979 35.6757C0.457498 41.9638 2.10049 48.1019 5.22337 53.5125L0.160156 72L19.0796 67.0391C24.2923 69.8819 30.1614 71.3799 36.1341 71.3823H36.1492H36.1494C55.8186 71.3823 71.8304 55.3752 71.8387 35.7047C71.842 26.1709 68.1329 17.2068 61.3951 10.4631ZM36.1494 65.3565H36.1378C30.8141 65.3537 25.5935 63.9244 21.0399 61.2224L19.9562 60.5799L8.72898 63.5236L11.7265 52.5811L11.0204 51.4593C8.05084 46.7376 6.48314 41.281 6.48538 35.678C6.4919 19.3277 19.7983 6.026 36.1606 6.026C44.0842 6.02929 51.5313 9.11778 57.1323 14.7226C62.7329 20.3274 65.8149 27.7781 65.8126 35.7021C65.8057 52.053 52.4988 65.3565 36.1494 65.3565Z" fill="#E0E0E0"/>
<path d="M1.79688 69.9488L6.62881 52.3058C3.64781 47.1423 2.08017 41.2842 2.08205 35.2845C2.08987 16.512 17.3681 1.23926 36.1402 1.23926C45.2512 1.24337 53.8025 4.78914 60.2318 11.2246C66.6626 17.6599 70.202 26.2139 70.1983 35.3112C70.1905 54.0842 54.9113 69.3582 36.1415 69.3582C36.1402 69.3582 36.1425 69.3582 36.1415 69.3582H36.1264C30.4266 69.3564 24.826 67.9256 19.8518 65.2146L1.79688 69.9488Z" fill="url(#paint0_linear_249_6447)"/>
<path fill-rule="evenodd" clip-rule="evenodd" d="M27.324 20.5301C26.6637 19.0621 25.9685 19.0327 25.3403 19.007C24.8265 18.985 24.2383 18.9863 23.651 18.9863C23.0633 18.9863 22.1082 19.2072 21.3005 20.0893C20.4924 20.9714 18.2148 23.1038 18.2148 27.4407C18.2148 31.7781 21.374 35.9691 21.8143 36.5577C22.2551 37.1454 27.9127 46.3299 36.8726 49.8633C44.3191 52.7997 45.8344 52.2156 47.4507 52.0687C49.067 51.9218 52.666 49.9368 53.4007 47.8782C54.1354 45.8202 54.1354 44.0561 53.915 43.6873C53.6946 43.32 53.1068 43.0996 52.2252 42.6588C51.3436 42.2179 47.0099 40.0851 46.2017 39.7912C45.3936 39.4973 44.8058 39.3504 44.2181 40.2329C43.6303 41.1146 41.9419 43.0996 41.4276 43.6873C40.9134 44.2764 40.3991 44.3499 39.5175 43.9091C38.6358 43.4669 35.7967 42.537 32.4287 39.534C29.8082 37.1977 28.0389 34.3122 27.5246 33.4297C27.0104 32.5481 27.4695 32.0705 27.9117 31.6311C28.3075 31.2362 28.7934 30.6021 29.2342 30.0873C29.674 29.5726 29.821 29.2052 30.1148 28.6175C30.4087 28.0288 30.2618 27.5141 30.0414 27.0733C29.821 26.6325 28.1078 22.2731 27.324 20.5301Z" fill="white"/>
<path d="M61.0984 10.3498C54.4371 3.68396 45.5796 0.0110089 36.1426 0.00683594C16.696 0.00683594 0.870389 15.8273 0.862572 35.273C0.86028 41.489 2.4844 47.5565 5.57143 52.905L0.566406 71.1803L19.2687 66.2762C24.4216 69.0864 30.2233 70.5673 36.1274 70.5696H36.1424H36.1426C55.586 70.5696 71.4138 54.7463 71.4221 35.3015C71.4253 25.8774 67.7588 17.0162 61.0984 10.3498ZM36.1426 64.6131H36.1311C30.8685 64.6104 25.7078 63.1975 21.2064 60.5265L20.1352 59.8914L9.03685 62.8012L11.9999 51.9844L11.302 50.8755C8.36646 46.208 6.81675 40.814 6.81904 35.2754C6.82545 19.1128 19.9791 5.96377 36.1536 5.96377C43.9863 5.96701 51.3478 9.02006 56.8846 14.5605C62.4209 20.101 65.4675 27.4662 65.4652 35.2993C65.4583 51.4623 52.3042 64.6131 36.1426 64.6131Z" fill="white"/>
</g>
<defs>
<linearGradient id="paint0_linear_249_6447" x1="35.9976" y1="69.9488" x2="35.9976" y2="1.23937" gradientUnits="userSpaceOnUse">
<stop stop-color="#20B038"/>
<stop offset="1" stop-color="#60D66A"/>
</linearGradient>
<clipPath id="clip0_249_6447">
<rect width="72" height="72" fill="white"/>
</clipPath>
</defs>
</svg>
