<svg width="180" height="46" viewBox="0 0 180 46" fill="none" xmlns="http://www.w3.org/2000/svg">
<path d="M65.8131 2.41335C65.907 2.4105 66 2.43099 66.084 2.47298C66.168 2.51498 66.2403 2.57716 66.2943 2.65395C66.3548 2.71656 66.3979 2.79392 66.4193 2.87833C66.4406 2.96275 66.4395 3.05129 66.4161 3.13515L65.6943 8.96888C65.651 9.17453 65.5477 9.3627 65.3973 9.50949C65.3336 9.5708 65.2581 9.61849 65.1753 9.64964C65.0926 9.6808 65.0044 9.69475 64.9161 9.69067H57.5735C57.5275 9.69338 57.4825 9.70529 57.4412 9.7257C57.3998 9.74611 57.363 9.7746 57.3329 9.80949C57.2905 9.85996 57.2692 9.92488 57.2735 9.99068L53.1151 43.7931C53.073 43.9992 52.9695 44.1877 52.8181 44.3337C52.754 44.3945 52.6784 44.4418 52.5958 44.4729C52.5131 44.504 52.4251 44.5183 52.3369 44.5149H45.4844C45.3962 44.5183 45.3081 44.504 45.2255 44.4729C45.1429 44.4418 45.0673 44.3945 45.0032 44.3337C44.9449 44.2579 44.904 44.1701 44.8834 44.0767C44.8629 43.9832 44.8632 43.8864 44.8844 43.7931L49.0428 9.99068C49.123 9.79167 49.0428 9.69364 48.8022 9.69364H41.8161C41.3765 9.69364 41.1567 9.45305 41.1567 8.97185L41.8814 3.13515C41.9101 2.95379 41.9942 2.78573 42.122 2.65395C42.1908 2.57894 42.2743 2.51887 42.3673 2.47748C42.4603 2.43609 42.5608 2.41426 42.6626 2.41335H65.8131ZM25.2983 44.5149C25.2062 44.5243 25.1133 44.5108 25.0277 44.4756C24.9422 44.4404 24.8666 44.3846 24.8078 44.3132C24.7491 44.2417 24.7088 44.1569 24.6908 44.0662C24.6727 43.9754 24.6773 43.8816 24.7042 43.7931L29.7032 3.13515C29.7339 2.95443 29.8176 2.78693 29.9438 2.65395C30.0128 2.57922 30.0964 2.51933 30.1893 2.47796C30.2823 2.43659 30.3827 2.41461 30.4844 2.41335H37.2804C37.723 2.41335 37.9428 2.65395 37.9428 3.13515L32.9349 43.7931C32.8928 43.9992 32.7893 44.1877 32.6379 44.3337C32.4824 44.4517 32.2924 44.5153 32.0973 44.5149H25.2983ZM25.7676 8.96888C25.7243 9.17453 25.6209 9.3627 25.4705 9.50949C25.4068 9.5708 25.3313 9.61849 25.2486 9.64964C25.1659 9.6808 25.0777 9.69475 24.9893 9.69067H12.8349C12.7947 9.68589 12.754 9.6903 12.7158 9.70353C12.6776 9.71677 12.6429 9.73851 12.6143 9.76711C12.5857 9.7957 12.564 9.83041 12.5507 9.86862C12.5375 9.90683 12.5331 9.94755 12.5379 9.9877L11.3497 19.4928C11.3497 19.6908 11.4299 19.7898 11.5903 19.7898H18.5676C18.6613 19.7877 18.7541 19.8086 18.8379 19.8505C18.9218 19.8924 18.9942 19.9542 19.0487 20.0304C19.109 20.0932 19.1517 20.1706 19.1726 20.2551C19.1934 20.3396 19.1917 20.428 19.1676 20.5116L18.4309 26.3661C18.3873 26.5717 18.284 26.7597 18.1339 26.9067C18.0702 26.9681 17.9947 27.0158 17.912 27.0469C17.8292 27.0781 17.741 27.092 17.6527 27.0879H10.7319C10.4913 27.0879 10.3695 27.186 10.3695 27.385L8.38538 43.805C8.34334 44.0111 8.23977 44.1996 8.08835 44.3456C7.93286 44.4636 7.74294 44.5272 7.54776 44.5268H0.745774C0.653738 44.5362 0.560811 44.5227 0.475254 44.4875C0.389698 44.4523 0.314164 44.3965 0.255373 44.325C0.196583 44.2536 0.156357 44.1688 0.138272 44.078C0.120187 43.9873 0.124805 43.8935 0.151715 43.805L5.13885 3.13515C5.16755 2.95379 5.25158 2.78573 5.37944 2.65395C5.44825 2.57894 5.53174 2.51887 5.62474 2.47748C5.71773 2.43609 5.81824 2.41426 5.92003 2.41335H25.8864C25.9802 2.4105 26.0733 2.43099 26.1573 2.47298C26.2413 2.51498 26.3135 2.57716 26.3676 2.65395C26.4281 2.71656 26.4712 2.79392 26.4925 2.87833C26.5139 2.96275 26.5128 3.05129 26.4893 3.13515L25.7676 8.96888Z" fill="#49AD50"/>
<path d="M152.942 44.5146C152.663 44.5146 152.482 44.4522 152.402 44.3334C152.367 44.2214 152.36 44.1026 152.381 43.9872C152.402 43.8718 152.451 43.7633 152.524 43.671L160.944 29.2381L161.004 28.8758L156.07 14.4399L156.011 14.1993C156.011 13.7983 156.251 13.6053 156.732 13.6053H164.191C164.364 13.5905 164.536 13.6364 164.679 13.735C164.821 13.8337 164.925 13.979 164.972 14.1459L166.956 20.942C167.078 21.1826 167.197 21.1826 167.319 20.942L170.987 14.1459C171.069 13.9808 171.197 13.8425 171.354 13.7468C171.512 13.6512 171.694 13.6021 171.878 13.6053H179.274C179.555 13.6053 179.736 13.6855 179.818 13.8459C179.898 13.9647 179.856 14.1667 179.696 14.4399L171.275 28.8758C171.237 28.9936 171.237 29.1203 171.275 29.2381L176.146 43.671L176.209 43.9116C176.209 44.3126 175.968 44.5057 175.487 44.5057H168.1C167.933 44.5255 167.764 44.48 167.63 44.3787C167.495 44.2775 167.405 44.1282 167.378 43.9621L165.334 36.9254C165.255 36.6046 165.156 36.6046 165.037 36.9254L161.31 43.9621C161.237 44.1349 161.112 44.2804 160.952 44.378C160.792 44.4756 160.605 44.5203 160.419 44.5057L152.942 44.5146Z" fill="#333333"/>
<path d="M141.705 44.514C141.613 44.5234 141.52 44.5099 141.434 44.4747C141.349 44.4395 141.273 44.3837 141.214 44.3123C141.156 44.2409 141.115 44.156 141.097 44.0653C141.079 43.9746 141.084 43.8808 141.111 43.7922L144.72 14.3206C144.75 14.1399 144.834 13.9723 144.96 13.8394C145.029 13.7646 145.113 13.7048 145.206 13.6634C145.299 13.622 145.399 13.6 145.501 13.5988H152.359C152.453 13.5967 152.546 13.6175 152.63 13.6595C152.713 13.7014 152.786 13.7631 152.84 13.8394C152.901 13.9021 152.943 13.9796 152.964 14.0641C152.985 14.1485 152.983 14.237 152.959 14.3206L149.35 43.7922C149.308 43.9984 149.205 44.1869 149.053 44.3329C148.99 44.3942 148.914 44.4419 148.831 44.473C148.749 44.5042 148.66 44.5181 148.572 44.514H141.705Z" fill="#333333"/>
<path d="M149.28 10.1117C148.737 10.1317 148.196 10.0406 147.689 9.84399C147.183 9.64735 146.721 9.34932 146.334 8.96816C145.956 8.59047 145.66 8.13946 145.463 7.64292C145.267 7.14637 145.174 6.61482 145.19 6.081C145.19 4.47702 145.691 3.17403 146.693 2.17203C147.171 1.66406 147.749 1.26218 148.392 0.992492C149.035 0.722806 149.727 0.591352 150.424 0.606669C151.666 0.606669 152.648 0.968058 153.371 1.69084C153.738 2.07335 154.023 2.52665 154.209 3.02306C154.394 3.51946 154.477 4.04855 154.452 4.57801C154.464 5.30074 154.333 6.01875 154.065 6.68997C153.796 7.36118 153.397 7.97212 152.889 8.48697C152.44 9.00121 151.885 9.41254 151.262 9.69292C150.639 9.9733 149.963 10.1161 149.28 10.1117Z" fill="#333333"/>
<path d="M126.832 44.9342C123.784 44.9342 121.378 44.253 119.614 42.8906C117.891 41.4846 117.03 39.5796 117.03 37.1757C117.023 36.7787 117.043 36.3818 117.089 35.9875L117.148 35.5687C117.179 35.388 117.263 35.2205 117.389 35.0875C117.458 35.0128 117.542 34.9529 117.635 34.9115C117.727 34.8701 117.828 34.8482 117.93 34.8469H124.366C124.46 34.8448 124.553 34.8657 124.637 34.9076C124.72 34.9495 124.793 35.0113 124.847 35.0875C124.908 35.1502 124.95 35.2277 124.971 35.3122C124.992 35.3967 124.99 35.4851 124.966 35.5687V35.7469C124.894 36.12 124.91 36.5047 125.013 36.8705C125.116 37.2362 125.304 37.5726 125.56 37.8529C126.123 38.3558 126.851 38.6338 127.605 38.6338C128.36 38.6338 129.088 38.3558 129.65 37.8529C130.168 37.2999 130.448 36.5664 130.432 35.8093C130.437 35.4446 130.345 35.0851 130.166 34.7677C129.986 34.4503 129.725 34.1864 129.41 34.0033C128.7 33.5132 127.932 33.114 127.123 32.8152C126.281 32.4944 125.72 32.2736 125.438 32.1528C123.706 31.5047 122.129 30.5009 120.808 29.2062C119.566 27.9646 118.945 26.2211 118.945 23.9755C118.939 23.5331 118.958 23.0907 119.005 22.6507C119.365 19.7259 120.588 17.4209 122.673 15.7358C124.758 14.0506 127.344 13.208 130.432 13.208C133.402 13.208 135.708 13.9496 137.349 15.4328C139.031 16.918 139.872 18.9437 139.874 21.5101C139.863 22.013 139.822 22.5149 139.752 23.0131C139.71 23.2192 139.607 23.4077 139.455 23.5537C139.392 23.615 139.316 23.6627 139.233 23.6938C139.151 23.725 139.062 23.739 138.974 23.7349H132.716C132.627 23.7383 132.539 23.724 132.457 23.6929C132.374 23.6618 132.299 23.6144 132.235 23.5537C132.176 23.4779 132.135 23.3901 132.115 23.2967C132.094 23.2032 132.095 23.1064 132.116 23.0131L132.178 22.5052C132.233 22.1643 132.213 21.8156 132.12 21.4832C132.027 21.1507 131.862 20.8427 131.638 20.5804C131.43 20.3203 131.164 20.1136 130.861 19.9777C130.557 19.8417 130.226 19.7805 129.894 19.7992C129.483 19.7791 129.073 19.8557 128.697 20.0229C128.321 20.19 127.989 20.443 127.729 20.7616C127.215 21.3404 126.936 22.0906 126.947 22.8646C126.93 23.2644 127.014 23.6621 127.193 24.0202C127.372 24.3783 127.639 24.6849 127.969 24.9111C129.021 25.555 130.132 26.097 131.287 26.53C133.533 27.4131 135.338 28.4359 136.702 29.5983C138.104 30.7627 138.805 32.4667 138.805 34.7103C138.805 37.8371 137.683 40.3232 135.439 42.1688C133.234 44.0124 130.362 44.9342 126.826 44.9342" fill="#333333"/>
<path d="M102.307 37.7186C102.697 37.721 103.084 37.6358 103.438 37.4692C103.791 37.3027 104.103 37.059 104.35 36.7562C104.982 36.051 105.381 35.1684 105.494 34.2284L106.756 23.8827C106.878 22.8431 106.717 21.9995 106.275 21.358C106.074 21.0503 105.797 20.8 105.471 20.6313C105.144 20.4627 104.78 20.3815 104.413 20.3956C104.013 20.3966 103.619 20.483 103.255 20.649C102.892 20.815 102.569 21.0567 102.307 21.358C101.714 22.0742 101.357 22.956 101.285 23.8827L99.9601 34.2284C99.8413 35.27 100.002 36.1126 100.441 36.7562C100.643 37.0636 100.921 37.3137 101.248 37.4823C101.574 37.651 101.939 37.7323 102.307 37.7186ZM107.9 14.3212C107.93 14.1405 108.014 13.973 108.14 13.84C108.209 13.7653 108.293 13.7054 108.386 13.664C108.479 13.6227 108.579 13.6007 108.681 13.5994H115.545C115.639 13.5974 115.732 13.6182 115.816 13.6601C115.899 13.7021 115.972 13.7638 116.026 13.84C116.087 13.9028 116.129 13.9803 116.15 14.0647C116.171 14.1492 116.169 14.2376 116.145 14.3212L112.536 43.7929C112.494 43.999 112.391 44.1875 112.239 44.3335C112.175 44.3943 112.1 44.4416 112.017 44.4727C111.934 44.5038 111.846 44.5181 111.758 44.5147H104.894C104.802 44.5241 104.709 44.5106 104.623 44.4754C104.538 44.4402 104.462 44.3844 104.403 44.313C104.345 44.2415 104.304 44.1567 104.286 44.066C104.268 43.9752 104.273 43.8814 104.3 43.7929L104.54 42.1087C104.54 41.9483 104.502 41.8681 104.421 41.8681C104.341 41.8681 104.261 41.9275 104.181 42.0463C103.539 42.979 102.675 43.737 101.667 44.252C100.659 44.7669 99.5383 45.0226 98.4066 44.9959C96.0818 44.9959 94.3571 44.3137 93.2323 42.9493C92.1076 41.585 91.5472 39.681 91.5511 37.2374C91.5385 36.4534 91.5782 35.6695 91.67 34.8908L93.1135 23.2233C93.5096 19.9362 94.4719 17.4302 96.0007 15.7054C97.563 13.9786 99.668 13.1163 102.316 13.1182C104.721 13.1182 106.405 14.1004 107.365 16.0648C107.445 16.1866 107.505 16.246 107.546 16.246C107.588 16.246 107.686 16.1658 107.724 16.0054L107.9 14.3212ZM81.2175 23.8263C81.3698 22.9733 81.1982 22.0941 80.7363 21.3609C80.5347 21.0533 80.2571 20.803 79.9302 20.6344C79.6034 20.4657 79.2385 20.3845 78.8709 20.3985C78.1649 20.408 77.4843 20.6632 76.9462 21.1203C76.3711 21.6244 75.9715 22.2986 75.8056 23.0451L74.362 35.075C74.3271 35.7773 74.5632 36.4663 75.0214 36.9997C75.2432 37.239 75.5142 37.4273 75.8157 37.5519C76.1171 37.6765 76.442 37.7344 76.768 37.7215C77.1589 37.7239 77.5453 37.6387 77.8989 37.4722C78.2526 37.3057 78.5644 37.062 78.8115 36.7591C79.4321 36.0764 79.8128 35.2097 79.8957 34.2908L81.2175 23.8263ZM82.6016 13.1331C84.9284 13.1331 86.6719 13.8143 87.8323 15.1767C89.0343 16.5014 89.6363 18.4262 89.6383 20.951C89.6518 21.7153 89.6111 22.4796 89.5165 23.2382L88.0729 34.9057C87.6769 38.074 86.6749 40.5602 85.067 42.3642C83.5046 44.1286 81.3799 45.0108 78.6927 45.0108C76.4848 45.0108 74.8403 44.2484 73.7591 42.7236C73.7323 42.687 73.6935 42.661 73.6496 42.6502C73.6056 42.6393 73.5592 42.6443 73.5185 42.6642C73.4383 42.6642 73.3997 42.7236 73.3997 42.8454L73.2779 43.8078C73.2358 44.0139 73.1323 44.2024 72.9808 44.3484C72.9172 44.4097 72.8416 44.4574 72.7589 44.4885C72.6762 44.5197 72.588 44.5336 72.4997 44.5296H65.6442C65.5522 44.5389 65.4592 44.5254 65.3737 44.4902C65.2881 44.455 65.2126 44.3992 65.1538 44.3278C65.095 44.2564 65.0548 44.1715 65.0367 44.0808C65.0186 43.9901 65.0232 43.8963 65.0502 43.8078L70.0432 3.14979C70.0719 2.96843 70.156 2.80037 70.2838 2.66859C70.3528 2.59385 70.4364 2.53398 70.5293 2.49261C70.6223 2.45124 70.7227 2.42926 70.8244 2.428H77.6799C77.7737 2.42515 77.8668 2.44564 77.9508 2.48763C78.0348 2.52962 78.107 2.5918 78.161 2.66859C78.2216 2.7312 78.2646 2.80856 78.286 2.89297C78.3074 2.97739 78.3063 3.06592 78.2828 3.14979L76.7799 15.3579V15.4797H76.8393C77.0512 15.4545 77.245 15.348 77.3799 15.1826C78.7784 13.8301 80.6563 13.0877 82.6016 13.1182V13.1331Z" fill="#333333"/>
</svg>
